<svg width="31" height="49" viewBox="0 0 31 49" fill="none" xmlns="http://www.w3.org/2000/svg">
  <path d="M11.6245 9.696H19.3045V12.948H11.6245V9.696ZM17.7445 10.884H13.1965V11.772H17.7445V10.884ZM10.9405 2.736H19.9885V3.936H10.9405V2.736ZM15.4885 4.212C17.8765 4.212 19.2085 4.752 19.2085 5.796C19.2085 6.84 17.8765 7.38 15.4885 7.38C13.1005 7.38 11.7685 6.84 11.7685 5.796C11.7685 4.752 13.1005 4.212 15.4885 4.212ZM15.4885 5.28C14.1085 5.28 13.4725 5.424 13.4725 5.796C13.4725 6.156 14.1085 6.312 15.4885 6.312C16.8685 6.312 17.4925 6.156 17.4925 5.796C17.4925 5.424 16.8685 5.28 15.4885 5.28ZM14.6845 1.872H16.2805V3.588H14.6845V1.872ZM10.4605 7.908H20.5045V9.132H10.4605V7.908ZM14.6845 6.996H16.2805V8.556H14.6845V6.996Z" fill="#3D6BFF"/>
  <path d="M5.16666 25.75L15.5 20.5833L25.8333 25.75" stroke="#3D6BFF" stroke-width="2" stroke-linecap="round" stroke-linejoin="round"/>
  <path d="M23.25 30.9167L28.4167 33.5V43.8333C28.4167 44.5185 28.1445 45.1755 27.66 45.66C27.1756 46.1445 26.5185 46.4167 25.8333 46.4167H5.16667C4.48153 46.4167 3.82445 46.1445 3.33998 45.66C2.85551 45.1755 2.58334 44.5185 2.58334 43.8333V33.5L7.75 30.9167" stroke="#3D6BFF" stroke-width="2" stroke-linecap="round" stroke-linejoin="round"/>
  <path d="M18.0833 46.4167V41.25C18.0833 40.5648 17.8112 39.9078 17.3267 39.4233C16.8422 38.9388 16.1851 38.6667 15.5 38.6667C14.8149 38.6667 14.1578 38.9388 13.6733 39.4233C13.1888 39.9078 12.9167 40.5648 12.9167 41.25V46.4167" stroke="#3D6BFF" stroke-width="2" stroke-linecap="round" stroke-linejoin="round"/>
  <path d="M23.25 24.4583V46.4167" stroke="#3D6BFF" stroke-width="2" stroke-linecap="round" stroke-linejoin="round"/>
  <path d="M7.75 24.4583V46.4167" stroke="#3D6BFF" stroke-width="2" stroke-linecap="round" stroke-linejoin="round"/>
  <path d="M15.5 32.2083C16.9267 32.2083 18.0833 31.0517 18.0833 29.625C18.0833 28.1983 16.9267 27.0417 15.5 27.0417C14.0733 27.0417 12.9167 28.1983 12.9167 29.625C12.9167 31.0517 14.0733 32.2083 15.5 32.2083Z" stroke="#3D6BFF" stroke-width="2" stroke-linecap="round" stroke-linejoin="round"/>
</svg>
