<svg width="45" height="48" viewBox="0 0 45 48" fill="none" xmlns="http://www.w3.org/2000/svg">
  <path d="M30.5417 18.0833C32.4662 16.1975 34.4167 13.9371 34.4167 10.9792C34.4167 9.09502 33.6682 7.28805 32.3359 5.95576C31.0036 4.62347 29.1966 3.875 27.3125 3.875C25.0392 3.875 23.4375 4.52083 21.5 6.45833C19.5625 4.52083 17.9608 3.875 15.6875 3.875C13.8034 3.875 11.9964 4.62347 10.6641 5.95576C9.3318 7.28805 8.58333 9.09502 8.58333 10.9792C8.58333 13.95 10.5208 16.2104 12.4583 18.0833L21.5 27.125L30.5417 18.0833Z" stroke="#3D6BFF" stroke-width="2" stroke-linecap="round" stroke-linejoin="round"/>
  <path d="M21.5 6.45834L17.6767 10.2817C17.4142 10.5422 17.2059 10.8521 17.0638 11.1935C16.9217 11.5349 16.8485 11.901 16.8485 12.2708C16.8485 12.6406 16.9217 13.0068 17.0638 13.3482C17.2059 13.6896 17.4142 13.9995 17.6767 14.26C18.7358 15.3192 20.4279 15.3579 21.5517 14.3504L24.2254 11.8963C24.8956 11.2881 25.7682 10.9513 26.6731 10.9513C27.5781 10.9513 28.4506 11.2881 29.1208 11.8963L32.9442 15.3321" stroke="#3D6BFF" stroke-width="2" stroke-linecap="round" stroke-linejoin="round"/>
  <path d="M29.25 19.375L26.6667 16.7917" stroke="#3D6BFF" stroke-width="2" stroke-linecap="round" stroke-linejoin="round"/>
  <path d="M25.375 23.25L22.7917 20.6667" stroke="#3D6BFF" stroke-width="2" stroke-linecap="round" stroke-linejoin="round"/>
  <path d="M2.84588 38.028H4.04588V38.316C4.04588 40.62 3.37388 42.936 1.59788 43.956L0.697875 42.756C2.28188 41.832 2.84588 40.02 2.84588 38.316V38.028ZM3.15788 38.028H4.35788V38.316C4.35788 39.984 4.93388 41.676 6.50588 42.516L5.64188 43.692C3.84188 42.756 3.15788 40.584 3.15788 38.316V38.028ZM1.06988 36.828H6.12188V38.112H1.06988V36.828ZM2.84588 35.328H4.35788V37.86H2.84588V35.328ZM9.01388 34.956H10.5259V46.068H9.01388V34.956ZM7.68188 39.216H9.52988V40.512H7.68188V39.216ZM6.62588 35.124H8.11388V45.564H6.62588V35.124ZM14.1969 38.676H15.7929V40.716H14.1969V38.676ZM18.1089 38.676H19.6929V40.716H18.1089V38.676ZM11.9409 40.224H21.9849V41.484H11.9409V40.224ZM16.9449 42.048C19.3449 42.048 20.7969 42.768 20.7969 44.052C20.7969 45.348 19.3449 46.068 16.9449 46.068C14.5329 46.068 13.0809 45.348 13.0809 44.052C13.0809 42.768 14.5329 42.048 16.9449 42.048ZM16.9449 43.248C15.4569 43.248 14.7009 43.5 14.7009 44.052C14.7009 44.616 15.4569 44.868 16.9449 44.868C18.4329 44.868 19.1889 44.616 19.1889 44.052C19.1889 43.5 18.4329 43.248 16.9449 43.248ZM16.9689 35.112C19.4169 35.112 20.9889 35.928 20.9889 37.26C20.9889 38.58 19.4169 39.372 16.9689 39.372C14.5089 39.372 12.9489 38.58 12.9489 37.26C12.9489 35.928 14.5089 35.112 16.9689 35.112ZM16.9689 36.336C15.4449 36.336 14.5929 36.636 14.5929 37.26C14.5929 37.872 15.4449 38.172 16.9689 38.172C18.4929 38.172 19.3449 37.872 19.3449 37.26C19.3449 36.636 18.4929 36.336 16.9689 36.336ZM27.948 41.868C30.348 41.868 31.884 42.66 31.884 43.98C31.884 45.276 30.348 46.068 27.948 46.068C25.548 46.068 24.012 45.276 24.012 43.98C24.012 42.66 25.548 41.868 27.948 41.868ZM27.948 43.068C26.448 43.068 25.596 43.38 25.596 43.98C25.596 44.568 26.448 44.868 27.948 44.868C29.448 44.868 30.3 44.568 30.3 43.98C30.3 43.38 29.448 43.068 27.948 43.068ZM24.132 35.448H31.164V36.708H24.132V35.448ZM23.004 39.912H33.012V41.184H23.004V39.912ZM26.712 37.98H28.296V40.236H26.712V37.98ZM30.24 35.448H31.824V36.36C31.824 37.236 31.824 38.184 31.524 39.336L29.94 39.168C30.24 38.028 30.24 37.224 30.24 36.36V35.448ZM35.0511 35.892H42.0951V37.176H35.0511V35.892ZM34.0311 43.44H44.0751V44.736H34.0311V43.44ZM37.5831 39.624H39.1791V44.076H37.5831V39.624ZM41.5191 35.892H43.1151V36.96C43.1151 38.352 43.1151 39.912 42.6711 42.288L41.0751 42.108C41.5191 39.9 41.5191 38.292 41.5191 36.96V35.892Z" fill="#3D6BFF"/>
</svg>
