<svg width="31" height="49" viewBox="0 0 31 49" fill="none" xmlns="http://www.w3.org/2000/svg">
  <path d="M5.97294 2.976H13.0169V4.236H5.97294V2.976ZM4.95294 10.32H14.9969V11.616H4.95294V10.32ZM12.1769 2.976H13.7609V4.296C13.7609 5.856 13.7609 7.368 13.3649 9.648L11.7689 9.516C12.1769 7.38 12.1769 5.796 12.1769 4.296V2.976ZM15.98 7.332H26.048V8.58H15.98V7.332ZM20.204 7.764H21.788V9.516H20.204V7.764ZM17.228 9.06H18.8V9.936H23.276V9.06H24.848V12.948H17.228V9.06ZM18.8 11.088V11.748H23.276V11.088H18.8ZM17.216 2.124H24.824V4.992H18.812V6.276H17.228V3.876H23.252V3.312H17.216V2.124ZM17.228 5.604H25.04V6.78H17.228V5.604Z" fill="#3D6BFF"/>
  <path d="M20.6667 45.125V42.5417C20.6667 41.1714 20.1223 39.8572 19.1534 38.8883C18.1844 37.9193 16.8703 37.375 15.5 37.375H7.75C6.37971 37.375 5.06555 37.9193 4.09661 38.8883C3.12767 39.8572 2.58333 41.1714 2.58333 42.5417V45.125" stroke="#3D6BFF" stroke-width="2" stroke-linecap="round" stroke-linejoin="round"/>
  <path d="M11.625 32.2083C14.4785 32.2083 16.7917 29.8951 16.7917 27.0417C16.7917 24.1882 14.4785 21.875 11.625 21.875C8.77152 21.875 6.45833 24.1882 6.45833 27.0417C6.45833 29.8951 8.77152 32.2083 11.625 32.2083Z" stroke="#3D6BFF" stroke-width="2" stroke-linecap="round" stroke-linejoin="round"/>
  <path d="M28.4167 45.125V42.5417C28.4158 41.3969 28.0348 40.2848 27.3334 39.3801C26.6321 38.4753 25.6501 37.8291 24.5417 37.5429" stroke="#3D6BFF" stroke-width="2" stroke-linecap="round" stroke-linejoin="round"/>
  <path d="M20.6667 22.0429C21.778 22.3275 22.7631 22.9738 23.4665 23.8801C24.17 24.7863 24.5518 25.9009 24.5518 27.0481C24.5518 28.1953 24.17 29.3099 23.4665 30.2162C22.7631 31.1224 21.778 31.7688 20.6667 32.0533" stroke="#3D6BFF" stroke-width="2" stroke-linecap="round" stroke-linejoin="round"/>
</svg>
