<svg width="31" height="48" viewBox="0 0 31 48" fill="none" xmlns="http://www.w3.org/2000/svg">
  <path d="M25.0583 19.2458C26.0917 21.1833 27.125 21.9583 27.125 21.9583H3.875C3.875 21.9583 7.75 19.375 7.75 10.3333C7.75 6.07084 11.2375 2.58334 15.5 2.58334C16.4042 2.58334 17.1792 2.71251 17.9542 2.97084" stroke="#3D6BFF" stroke-width="2" stroke-linecap="round" stroke-linejoin="round"/>
  <path d="M13.3042 27.125C13.5204 27.5182 13.8382 27.8462 14.2245 28.0746C14.6107 28.303 15.0513 28.4236 15.5 28.4236C15.9488 28.4236 16.3893 28.303 16.7755 28.0746C17.1618 27.8462 17.4796 27.5182 17.6958 27.125" stroke="#3D6BFF" stroke-width="2" stroke-linecap="round" stroke-linejoin="round"/>
  <path d="M23.25 14.2083C25.3901 14.2083 27.125 12.4734 27.125 10.3333C27.125 8.19324 25.3901 6.45834 23.25 6.45834C21.1099 6.45834 19.375 8.19324 19.375 10.3333C19.375 12.4734 21.1099 14.2083 23.25 14.2083Z" stroke="#3D6BFF" stroke-width="2" stroke-linecap="round" stroke-linejoin="round"/>
  <path d="M13.0929 34.956H14.6889V40.5H13.0929V34.956ZM14.0409 37.08H16.1529V38.388H14.0409V37.08ZM7.34494 40.944H14.6889V43.992H8.95294V45.312H7.36894V42.84H13.1169V42.168H7.34494V40.944ZM7.36894 44.7H15.0129V45.948H7.36894V44.7ZM8.97694 35.28C10.6809 35.28 11.9409 36.324 11.9409 37.8C11.9409 39.264 10.6809 40.32 8.97694 40.32C7.28494 40.32 6.01294 39.264 6.01294 37.8C6.01294 36.324 7.28494 35.28 8.97694 35.28ZM8.97694 36.564C8.16094 36.564 7.56094 37.02 7.56094 37.8C7.56094 38.58 8.16094 39.048 8.97694 39.048C9.80494 39.048 10.4049 38.58 10.4049 37.8C10.4049 37.02 9.80494 36.564 8.97694 36.564ZM24.612 34.956H26.22V41.544H24.612V34.956ZM17.556 39.888H18.528C20.688 39.888 22.092 39.852 23.7 39.588L23.88 40.848C22.224 41.136 20.748 41.184 18.528 41.184H17.556V39.888ZM17.544 35.592H22.656V38.94H19.128V40.656H17.556V37.752H21.084V36.852H17.544V35.592ZM18.828 42.048H26.22V45.948H18.828V42.048ZM24.648 43.296H20.388V44.688H24.648V43.296Z" fill="#3D6BFF"/>
</svg>