<svg width="49" height="49" viewBox="0 0 49 49" fill="none" xmlns="http://www.w3.org/2000/svg">
<path d="M1.5452 2.976H8.5892V4.236H1.5452V2.976ZM0.525203 10.32H10.5692V11.616H0.525203V10.32ZM7.7492 2.976H9.3332V4.296C9.3332 5.856 9.3332 7.368 8.9372 9.648L7.3412 9.516C7.7492 7.38 7.7492 5.796 7.7492 4.296V2.976ZM11.5523 7.332H21.6203V8.58H11.5523V7.332ZM15.7763 7.764H17.3603V9.516H15.7763V7.764ZM12.8003 9.06H14.3723V9.936H18.8483V9.06H20.4203V12.948H12.8003V9.06ZM14.3723 11.088V11.748H18.8483V11.088H14.3723ZM12.7883 2.124H20.3963V4.992H14.3843V6.276H12.8003V3.876H18.8243V3.312H12.7883V2.124ZM12.8003 5.604H20.6123V6.78H12.8003V5.604ZM25.8607 2.76H30.6127V4.044H25.8607V2.76ZM27.2287 5.352H28.8127V8.136H27.2287V5.352ZM29.9887 2.76H31.5607V3.456C31.5607 4.236 31.5607 5.34 31.2967 6.72L29.7487 6.552C29.9887 5.184 29.9887 4.224 29.9887 3.456V2.76ZM32.6407 1.956H34.2487V10.272H32.6407V1.956ZM33.6127 5.34H35.5687V6.648H33.6127V5.34ZM26.8327 11.604H34.5967V12.876H26.8327V11.604ZM26.8327 9.528H28.4287V12H26.8327V9.528ZM25.3567 8.784L25.2127 7.524C27.1327 7.524 29.8087 7.488 32.0407 7.176L32.1367 8.304C29.8447 8.736 27.2647 8.784 25.3567 8.784ZM44.0637 1.944H45.6597V13.092H44.0637V1.944ZM37.0077 9.204H37.9917C39.9597 9.204 41.5317 9.132 43.2957 8.832L43.4517 10.116C41.6517 10.44 40.0197 10.5 37.9917 10.5H37.0077V9.204ZM36.9957 2.892H42.2397V7.188H38.6277V9.684H37.0077V5.928H40.6077V4.164H36.9957V2.892Z" fill="#3D6BFF"/>
<path d="M28.6667 45.125V42.5417C28.6667 41.1714 28.1223 39.8572 27.1534 38.8883C26.1845 37.9193 24.8703 37.375 23.5 37.375H15.75C14.3797 37.375 13.0656 37.9193 12.0966 38.8883C11.1277 39.8572 10.5833 41.1714 10.5833 42.5417V45.125" stroke="#3D6BFF" stroke-width="2" stroke-linecap="round" stroke-linejoin="round"/>
<path d="M19.625 32.2083C22.4785 32.2083 24.7917 29.8951 24.7917 27.0417C24.7917 24.1882 22.4785 21.875 19.625 21.875C16.7715 21.875 14.4583 24.1882 14.4583 27.0417C14.4583 29.8951 16.7715 32.2083 19.625 32.2083Z" stroke="#3D6BFF" stroke-width="2" stroke-linecap="round" stroke-linejoin="round"/>
<path d="M36.4167 45.125V42.5417C36.4158 41.3969 36.0348 40.2848 35.3334 39.3801C34.6321 38.4753 33.6501 37.8291 32.5417 37.5429" stroke="#3D6BFF" stroke-width="2" stroke-linecap="round" stroke-linejoin="round"/>
<path d="M28.6667 22.0429C29.778 22.3275 30.7631 22.9738 31.4665 23.8801C32.17 24.7863 32.5518 25.9009 32.5518 27.0481C32.5518 28.1953 32.17 29.3099 31.4665 30.2162C30.7631 31.1224 29.778 31.7688 28.6667 32.0533" stroke="#3D6BFF" stroke-width="2" stroke-linecap="round" stroke-linejoin="round"/>
<path d="M43.2534 18.6318L43.7763 18.9717C44.0294 19.1362 44.3433 19.1776 44.6304 19.0843L45.3735 18.8428C45.765 18.7155 46.1945 18.8412 46.4556 19.1595L46.733 19.4975C47.0355 19.8662 47.0355 20.3973 46.733 20.7661L46.0226 21.6318" stroke="#3D6BFF" stroke-width="1.5" stroke-linecap="round"/>
<path d="M46.2534 21.6318L46.3519 21.9824C46.4608 22.3704 46.8056 22.6383 47.1807 22.6265V22.6265C47.6434 22.6119 48.0395 23.0178 48.0439 23.5109L48.0507 24.2711C48.0535 24.5808 47.9249 24.8689 47.7006 25.0553L46.4902 26.0615" stroke="#3D6BFF" stroke-width="1.5" stroke-linecap="round"/>
<path d="M38.4799 18.6516L39.1622 18.4765C39.5019 18.3894 39.7668 18.1094 39.8536 17.7458L40.0452 16.9428C40.1588 16.4666 40.5713 16.1501 41.0302 16.1869L42.0062 16.2652C42.3899 16.2959 42.7246 16.5686 42.8578 16.959L43.4709 18.7553" stroke="#3D6BFF" stroke-width="1.5" stroke-linecap="round"/>
<path d="M36.5872 22.5949L36.6717 21.9041C36.7086 21.6022 36.6168 21.3037 36.421 21.0889L35.8325 20.4432C35.5645 20.1491 35.4981 19.7073 35.6646 19.3244L35.8674 18.8579C36.0668 18.3994 36.5456 18.1451 37.0029 18.2548L38.0993 18.5178" stroke="#3D6BFF" stroke-width="1.5" stroke-linecap="round"/>
<path d="M38.2534 27.6318L37.8007 27.0084C37.6031 26.7363 37.2913 26.5767 36.967 26.5815L36.0404 26.5952C35.606 26.6017 35.2081 26.3147 35.0611 25.8889L34.7805 25.0765C34.6336 24.651 34.7717 24.1871 35.1206 23.9344L36.3749 23.0257" stroke="#3D6BFF" stroke-width="1.5" stroke-linecap="round"/>
<path d="M42.5242 28.605L41.8909 28.5921C41.5641 28.5854 41.2525 28.7538 41.0621 29.0399L40.6405 29.6732C40.3868 30.0545 39.9279 30.2152 39.5185 30.0662L38.8764 29.8326C38.4835 29.6896 38.2267 29.2939 38.2391 28.8507L38.2814 27.345" stroke="#3D6BFF" stroke-width="1.5" stroke-linecap="round"/>
<path d="M46.2049 25.9369L45.8632 26.4702C45.6869 26.7455 45.6677 27.0991 45.8123 27.4109L46.1323 28.1011C46.3249 28.5166 46.2224 28.9919 45.8815 29.2633L45.347 29.6888C45.0199 29.9492 44.5483 29.9616 44.1768 29.7196L42.9148 28.8973" stroke="#3D6BFF" stroke-width="1.5" stroke-linecap="round"/>
<path d="M43.2238 21.6229C44.3154 22.5585 44.3854 24.2306 43.3688 25.2472C42.3522 26.2638 40.6802 26.1938 39.7445 25.1022C38.9056 24.1234 38.9573 22.6587 39.8688 21.7472C40.7803 20.8356 42.2451 20.784 43.2238 21.6229Z" stroke="#3D6BFF" stroke-width="1.5" stroke-linecap="round"/>
</svg>
