<svg width="36" height="49" viewBox="0 0 36 49" fill="none" xmlns="http://www.w3.org/2000/svg">
<path d="M8.52473 1.956H10.0487V13.068H8.52473V1.956ZM7.07273 6.24H8.92073V7.512H7.07273V6.24ZM6.04073 2.148H7.52873V12.54H6.04073V2.148ZM0.964734 3.18H2.56073V9.6H0.964734V3.18ZM0.964734 9H1.73273C2.80073 9 4.04873 8.94 5.42873 8.676L5.58473 10.044C4.13273 10.308 2.86073 10.368 1.73273 10.368H0.964734V9ZM20.3731 4.644H22.4851V5.94H20.3731V4.644ZM22.0531 1.956H23.6491V8.556H22.0531V1.956ZM19.8811 8.796C22.2331 8.796 23.6851 9.6 23.6851 10.944C23.6851 12.3 22.2331 13.08 19.8811 13.08C17.5291 13.08 16.0771 12.3 16.0771 10.944C16.0771 9.6 17.5291 8.796 19.8811 8.796ZM19.8811 10.008C18.4411 10.008 17.6731 10.308 17.6731 10.944C17.6731 11.568 18.4411 11.868 19.8811 11.868C21.3331 11.868 22.1011 11.568 22.1011 10.944C22.1011 10.308 21.3331 10.008 19.8811 10.008ZM16.9171 3.072H18.2131V3.768C18.2131 5.892 17.2291 7.836 15.1051 8.556L14.2891 7.296C16.1251 6.672 16.9171 5.196 16.9171 3.768V3.072ZM17.2531 3.072H18.5371V3.768C18.5371 5.076 19.2931 6.432 21.0451 7.02L20.2651 8.28C18.2011 7.596 17.2531 5.748 17.2531 3.768V3.072ZM14.7211 2.628H20.6971V3.9H14.7211V2.628ZM25.4002 10.488H35.4562V11.784H25.4002V10.488ZM29.6122 8.112H31.2082V10.8H29.6122V8.112ZM26.4562 2.664H28.0402V4.368H32.7802V2.664H34.3642V8.448H26.4562V2.664ZM28.0402 5.616V7.176H32.7802V5.616H28.0402Z" fill="#3D6BFF"/>
<path d="M27.6667 45.125V42.5417C27.6667 41.1714 27.1223 39.8572 26.1534 38.8883C25.1845 37.9193 23.8703 37.375 22.5 37.375H14.75C13.3797 37.375 12.0656 37.9193 11.0966 38.8883C10.1277 39.8572 9.58334 41.1714 9.58334 42.5417V45.125" stroke="#3D6BFF" stroke-width="2" stroke-linecap="round" stroke-linejoin="round"/>
<path d="M18.625 32.2083C21.4785 32.2083 23.7917 29.8951 23.7917 27.0417C23.7917 24.1882 21.4785 21.875 18.625 21.875C15.7715 21.875 13.4583 24.1882 13.4583 27.0417C13.4583 29.8951 15.7715 32.2083 18.625 32.2083Z" stroke="#3D6BFF" stroke-width="2" stroke-linecap="round" stroke-linejoin="round"/>
</svg>
