<svg width="33" height="48" viewBox="0 0 33 48" fill="none" xmlns="http://www.w3.org/2000/svg">
  <path d="M2 31.2486V20.9642C2 20.4317 2.38951 20 2.87 20H11.8282C12.0358 20 12.2367 20.0823 12.3944 20.2321L16.9807 24.5887C17.1383 24.7385 17.3391 24.8208 17.5469 24.8208H30.13C30.6105 24.8208 31 25.2525 31 25.785V29.6417M2 31.2486V44.747C2 45.2795 2.38951 45.7112 2.87 45.7112H13.6M2 31.2486H13.6" stroke="#3D6BFF" stroke-width="2.3" stroke-linecap="round" stroke-linejoin="round"/>
  <path d="M30.7925 37.2338C30.7925 38.3507 30.3651 39.4235 29.6018 40.2171C27.8448 42.0444 26.1407 43.9498 24.318 45.7109C23.9002 46.1087 23.2375 46.0942 22.8377 45.6784L17.5866 40.2171C15.9994 38.5663 15.9994 35.9013 17.5866 34.2506C19.1894 32.5836 21.8006 32.5836 23.4033 34.2506L23.5942 34.4491L23.785 34.2507C24.5535 33.451 25.6001 33 26.6934 33C27.7867 33 28.8333 33.451 29.6018 34.2506C30.3652 35.0442 30.7925 36.1169 30.7925 37.2338Z" stroke="#3D6BFF" stroke-width="2.3" stroke-linejoin="round"/>
  <path d="M5.04941 1.592H6.44141V2.396C6.44141 4.808 4.72541 6.944 1.84541 7.508L1.16141 6.188C3.66941 5.756 5.04941 3.992 5.04941 2.396V1.592ZM5.37341 1.592H6.75341V2.396C6.75341 4.028 8.12141 5.756 10.6414 6.188L9.95741 7.508C7.07741 6.944 5.37341 4.844 5.37341 2.396V1.592ZM0.933406 9.416H10.9894V10.712H0.933406V9.416ZM13.1005 1.928H20.0965V3.2H13.1005V1.928ZM11.9725 9.452H22.0165V10.76H11.9725V9.452ZM19.4245 1.928H20.9965V3.212C20.9965 4.832 20.9965 6.368 20.4805 8.792L18.9085 8.648C19.4245 6.404 19.4245 4.784 19.4245 3.212V1.928ZM19.7605 4.976V6.152L12.9685 6.488L12.7765 5.204L19.7605 4.976ZM30.9555 0.956H32.4675V7.136H30.9555V0.956ZM29.6955 3.416H31.4595V4.688H29.6955V3.416ZM28.5795 1.136H30.0675V7.076H28.5795V1.136ZM24.9315 7.592H26.5035V8.516H30.9075V7.592H32.4675V11.948H24.9315V7.592ZM26.5035 9.728V10.676H30.9075V9.728H26.5035ZM23.4435 5.552H24.2115C25.8075 5.552 26.8395 5.516 28.0635 5.288L28.1955 6.548C26.9355 6.788 25.8555 6.812 24.2115 6.812H23.4435V5.552ZM23.4315 1.52H27.6435V4.7H24.9915V6.668H23.4435V3.536H26.1075V2.768H23.4315V1.52Z" fill="#3D6BFF"/>
</svg>
