<?xml version="1.0" standalone="no"?>
<svg version="1.0" xmlns="http://www.w3.org/2000/svg"
 width="433.000000pt" height="399.000000pt" viewBox="0 0 433.000000 399.000000">

<g transform="translate(0.000000,399.000000) scale(0.100000,-0.100000)"
fill="#3d6bff" stroke="none">
<path d="M1295 3338 c-40 -22 -85 -72 -85 -95 0 -35 38 -29 80 11 21 21 50 37
72 41 34 7 41 4 73 -28 29 -29 35 -42 35 -77 0 -38 -6 -48 -62 -106 -79 -81
-116 -91 -179 -50 -46 31 -69 28 -69 -9 0 -54 116 -91 193 -61 46 17 145 113
165 159 32 73 5 167 -60 207 -37 22 -129 27 -163 8z"/>
<path d="M2812 3334 c-66 -34 -98 -120 -73 -197 17 -51 71 -107 104 -107 39 0
34 25 -13 76 -32 35 -40 51 -40 82 0 66 58 118 119 106 35 -7 132 -95 155
-142 14 -27 15 -39 6 -67 -6 -18 -18 -39 -26 -45 -7 -7 -14 -23 -14 -36 0 -19
5 -24 24 -24 39 0 70 52 74 125 4 55 1 64 -30 109 -18 27 -55 68 -81 90 -43
36 -54 40 -110 43 -44 3 -72 -1 -95 -13z"/>
<path d="M1126 3160 c-38 -12 -154 -125 -172 -167 -59 -137 70 -272 209 -219
52 20 110 76 105 102 -6 32 -38 28 -77 -10 -63 -62 -103 -64 -163 -8 -21 20
-28 35 -28 65 0 33 8 47 58 99 89 94 122 105 184 63 50 -34 68 -32 68 4 0 54
-107 95 -184 71z"/>
<path d="M1980 3129 c-229 -25 -436 -111 -580 -243 -156 -142 -271 -374 -305
-618 -12 -89 -15 -240 -15 -843 l0 -735 225 0 225 0 0 310 0 310 615 0 615 0
0 -310 0 -310 230 0 230 0 0 747 c0 490 -4 768 -11 807 -58 328 -140 486 -352
682 -28 25 -129 84 -203 117 -176 79 -433 112 -674 86z m322 -414 c173 -36
308 -136 378 -279 66 -135 72 -169 77 -468 l5 -268 -617 0 -618 0 6 253 c5
228 8 262 31 351 30 117 69 187 148 266 134 133 370 191 590 145z"/>
<path d="M2963 3118 c-33 -36 -43 -63 -43 -112 0 -61 29 -114 100 -180 64 -59
107 -73 179 -61 49 8 108 64 117 112 13 72 -1 122 -47 169 -77 78 -114 38 -42
-46 51 -59 51 -100 0 -146 -55 -51 -91 -47 -162 18 -50 45 -95 110 -95 136 0
5 11 26 26 47 42 62 14 115 -33 63z"/>
</g>
</svg>
